<?xml version="1.0" standalone="no"?>
<!DOCTYPE svg PUBLIC "-//W3C//DTD SVG 20010904//EN"
        "http://www.w3.org/TR/2001/REC-SVG-20010904/DTD/svg10.dtd">
<svg version="1.0" xmlns="http://www.w3.org/2000/svg"
     width="192.000000pt" height="192.000000pt" viewBox="0 0 192.000000 192.000000"
     preserveAspectRatio="xMidYMid meet">

    <g transform="translate(0.000000,192.000000) scale(0.100000,-0.100000)" stroke="none">

        <path fill="#FFFFFF" d="M137 1882 c-16 -81 -29 -354 -24 -507 19 -536 140 -853 418 -1094 99
-86 230 -174 346 -234 l83 -42 84 43 c264 134 492 343 595 542 132 257 194
675 162 1100 -16 211 -18 223 -45 216 -173 -47 -518 -56 -693 -18 l-103 22
-102 -22 c-178 -38 -521 -29 -694 18 -17 5 -22 0 -27 -24z"/>

        <path fill="#004990" d="M137 1882 c-16 -81 -29 -354 -24 -507 19 -536 140 -853 418 -1094 99
-86 230 -174 346 -234 l83 -42 84 43 c264 134 492 343 595 542 132 257 194
675 162 1100 -16 211 -18 223 -45 216 -173 -47 -518 -56 -693 -18 l-103 22
-102 -22 c-178 -38 -521 -29 -694 18 -17 5 -22 0 -27 -24z m953 -48 c117 -24
418 -24 549 0 52 9 95 15 97 13 2 -1 8 -90 15 -197 24 -381 -23 -729 -129
-979 -21 -47 -43 -86 -50 -86 -7 0 -56 58 -107 130 l-95 130 0 327 0 328 -125
0 -124 0 -3 -152 -3 -152 -222 307 c-123 169 -223 309 -223 311 0 2 35 6 78
10 42 4 102 13 132 21 61 15 85 14 210 -11z m-264 -332 c11 -8 544 -739 544
-747 0 -3 -58 -5 -128 -5 l-128 0 -140 191 -139 191 -3 -191 -2 -191 -130 0
-130 0 0 380 0 380 123 0 c67 0 127 -4 133 -8z m90 -917 c15 -23 15 -27 -1
-51 -15 -23 -15 -27 -1 -43 21 -23 20 -60 -1 -83 -22 -24 -77 -24 -103 2 -26
26 -25 44 2 69 20 19 20 22 5 39 -22 25 -21 48 3 72 29 29 76 26 96 -5z m189
15 c-3 -5 -13 -10 -21 -10 -17 0 -74 -53 -74 -68 0 -7 11 -6 29 1 43 16 81
-11 81 -58 0 -46 -29 -75 -74 -75 -96 0 -103 150 -8 199 40 22 77 27 67 11z
m190 0 c-3 -5 -12 -10 -20 -10 -19 0 -75 -49 -75 -66 0 -11 4 -12 19 -4 29 15
49 12 71 -10 44 -44 11 -120 -52 -120 -49 0 -78 33 -78 89 0 52 25 90 75 116
34 17 69 20 60 5z m-565 -115 c0 -59 3 -75 14 -75 8 0 18 -4 21 -10 4 -6 -16
-10 -52 -9 -56 0 -57 1 -35 16 18 12 22 25 22 64 0 42 -3 49 -20 49 -11 0 -20
4 -20 8 0 7 42 28 63 31 4 1 7 -33 7 -74z"/>
        <path fill="#004990" d="M847 588 c-21 -11 -22 -32 -1 -52 20 -21 40 -20 48 0 15 38 -15 70
-47 52z"/>
        <path fill="#004990" d="M830 469 c-9 -16 -8 -26 5 -45 17 -26 35 -30 53 -12 19 19 14 45 -10
62 -29 21 -35 20 -48 -5z"/>
        <path fill="#004990" d="M1023 503 c-18 -7 -16 -69 3 -87 21 -21 30 -20 48 6 21 29 20 51 -2
71 -19 17 -28 19 -49 10z"/>
        <path fill="#004990" d="M1206 497 c-24 -17 -13 -72 17 -88 17 -10 24 -8 39 11 22 27 22 39 2
68 -17 25 -33 28 -58 9z"/>
    </g>
</svg>
